<?xml version="1.0" encoding="utf-8"?>
<!-- Generator: Adobe Illustrator 14.0.0, SVG Export Plug-In . SVG Version: 6.00 Build 43363)  -->
<!DOCTYPE svg PUBLIC "-//W3C//DTD SVG 1.0//EN" "http://www.w3.org/TR/2001/REC-SVG-20010904/DTD/svg10.dtd">
<svg version="1.0" id="Layer_1" xmlns="http://www.w3.org/2000/svg" xmlns:xlink="http://www.w3.org/1999/xlink" x="0px" y="0px"
	 width="100px" height="68.387px" viewBox="0 0 100 68.387" enable-background="new 0 0 100 68.387" xml:space="preserve">
<path d="M52.648,7.46V5.426h2.657V4.139c0-2.289,2-4.139,4.474-4.139c2.47,0,4.468,1.851,4.468,4.139v1.287h2.6V7.46H52.648z"/>
<path d="M76.094,49.399c-5.244,0-9.495,4.25-9.495,9.493c0,5.244,4.251,9.495,9.495,9.495c5.24,0,9.486-4.251,9.486-9.495
	C85.58,53.649,81.334,49.399,76.094,49.399z M76.092,63.435c-2.509,0-4.542-2.033-4.542-4.542c0-2.509,2.033-4.539,4.542-4.539
	c2.506,0,4.537,2.029,4.537,4.539C80.629,61.402,78.598,63.435,76.092,63.435z"/>
<path d="M21.738,49.307c-5.24,0-9.491,4.254-9.491,9.495c0,5.244,4.25,9.491,9.491,9.491c5.244,0,9.494-4.247,9.494-9.491
	C31.232,53.561,26.982,49.307,21.738,49.307z M21.759,63.353c-2.508,0-4.542-2.031-4.542-4.542c0-2.508,2.034-4.539,4.542-4.539
	s4.541,2.031,4.541,4.539C26.299,61.322,24.267,63.353,21.759,63.353z"/>
<path d="M92.027,31.896c2.835,0.552,4.533,1.777,5.813,8.774l2.024,12.63c0.729,4.11-1.594,5.609-4.489,5.609H88.42
	c0-6.81-5.517-12.35-12.326-12.35c-6.81,0-12.333,5.541-12.333,12.35H34.037c0-6.81-5.52-12.35-12.33-12.35
	c-6.813,0-12.333,5.541-12.333,12.35H3.611C1.582,58.909,0,57.373,0,55.39V13.862c0-2.263,1.786-4.081,3.975-4.081h64.146h10.481
	c2.835,0,4.909,1.408,5.934,3.875L92.027,31.896z M67.151,14.014v17.251h19.948l-6.997-17.251H67.151z M49.307,29.051V18.466H38.722
	v10.585H28.135v10.587h10.587v10.584h10.585V39.638h10.585V29.051H49.307z"/>
</svg>
