<svg xmlns="http://www.w3.org/2000/svg" xmlns:xlink="http://www.w3.org/1999/xlink" version="1.1" id="Layer_1" x="0px" y="0px" width="100px" height="100px" viewBox="0 0 100 100" enable-background="new 0 0 100 100" xml:space="preserve">
<path fill="none" d="M50.381,35.871c-11.235,0-20.344,9.109-20.344,20.344v25.359h20.344h20.345V56.215  C70.726,44.979,61.617,35.871,50.381,35.871z M49.196,78.91H31.223V56.507c0-9.926,8.047-17.972,17.973-17.972V78.91z"/>
<path d="M50.381,29.444c-14.396,0-26.065,11.67-26.065,26.066v32.492h26.065h26.064V55.51  C76.445,41.114,64.776,29.444,50.381,29.444z M70.726,81.574H50.381H30.037V56.215c0-11.235,9.108-20.344,20.344-20.344  c11.236,0,20.345,9.109,20.345,20.344V81.574z"/>
<path d="M31.223,56.507V78.91h17.973V38.535C39.27,38.535,31.223,46.581,31.223,56.507z"/>
<path d="M86.727,92.287h-72.69c-0.97,2.166-1.753,4.433-2.326,6.783h77.343C88.479,96.72,87.697,94.453,86.727,92.287z"/>
<rect x="49.131" width="2.499" height="17.661"/>
<rect x="81.981" y="50.152" width="17.66" height="2.501"/>
<rect x="0.214" y="50.152" width="17.661" height="2.501"/>
<rect x="80.731" y="14.983" transform="matrix(-0.7072 -0.707 0.707 -0.7072 123.1221 98.6153)" width="2.499" height="17.66"/>
<rect x="16.625" y="14.982" transform="matrix(0.707 -0.7072 0.7072 0.707 -11.6037 19.6178)" width="2.499" height="17.661"/>
</svg>