<svg xmlns="http://www.w3.org/2000/svg" xmlns:xlink="http://www.w3.org/1999/xlink" version="1.1" x="0px" y="0px" width="100px" height="100px" viewBox="0 0 100 100" enable-background="new 0 0 100 100" xml:space="preserve">
<g id="Captions">
</g>
<g id="Your_Icon">
	<path fill-rule="evenodd" clip-rule="evenodd" d="M49.955,0c6.494,0,9.439,7.967,5.282,12.298   c-0.521,0.517-0.779,1.122-0.779,1.902c0,1.127,0.69,2.165,1.817,2.513l6.322,2.424c1.297,0.517,2.335,1.471,2.856,2.771   l6.581,15.581c0.605,1.56,0.605,3.293-0.09,4.853l-5.627,12.64c-0.174,0.343-0.174,0.78,0,1.123l1.301,3.293   c0.517,1.296-0.868,2.424-1.991,1.902c-0.521-0.174-0.869-0.517-1.127-1.038L62.598,56.8c-0.347-0.606-0.437-1.386-0.173-1.992   l4.589-13.852c0.174-0.606,0.084-1.302-0.174-1.907l-3.983-8.052c-0.695-1.296-2.771-0.953-2.855,0.521l-1.302,17.056l3.726,45.54   c0.084,0.521,0.347,1.038,0.864,1.212l3.635,1.818c0.521,0.258,0.869,0.779,0.869,1.301c0,0.864-0.695,1.555-1.56,1.555H66.06   h0.085l-9.953-1.122c-0.695-0.09-1.212-0.695-1.302-1.386l-4.935-37.489l-4.85,37.489c-0.085,0.69-0.605,1.296-1.296,1.386   C33.851,100,33.767,100,33.767,100c-0.867,0-1.56-0.69-1.56-1.555c0-0.521,0.348-1.043,0.864-1.301l3.638-1.818   c0.52-0.174,0.777-0.69,0.867-1.212l3.72-45.54L40,31.519c-0.087-1.475-2.166-1.817-2.858-0.521l-3.981,8.052   c-0.261,0.605-0.348,1.301-0.174,1.907l4.59,13.852c0.258,0.606,0.171,1.386-0.174,1.992l-1.905,3.462   c-0.261,0.521-0.608,0.864-1.125,1.038c-1.301,0.605-2.513-0.78-1.991-1.902l1.296-3.293c0.174-0.343,0.174-0.78,0-1.123   l-5.627-12.64c-0.69-1.56-0.69-3.293-0.085-4.853l6.581-15.581c0.517-1.301,1.471-2.255,2.856-2.771l6.32-2.424   c1.125-0.348,1.817-1.386,1.817-2.513c0-0.78-0.261-1.386-0.779-1.902C40.605,7.967,43.549,0,49.955,0"/>
</g>
</svg>