<?xml version="1.0" encoding="utf-8"?>
<!-- Generator: Adobe Illustrator 14.0.0, SVG Export Plug-In . SVG Version: 6.00 Build 43363)  -->
<!DOCTYPE svg PUBLIC "-//W3C//DTD SVG 1.1//EN" "http://www.w3.org/Graphics/SVG/1.1/DTD/svg11.dtd">
<svg version="1.1" id="Layer_1" xmlns="http://www.w3.org/2000/svg" xmlns:xlink="http://www.w3.org/1999/xlink" x="0px" y="0px"
	 width="100px" height="100px" viewBox="0 0 100 100" enable-background="new 0 0 100 100" xml:space="preserve">
<g id="Your_Icon">
	<path d="M78.867,22H55.334V4.467c0-0.626-0.508-1.134-1.134-1.134h-8.065C45.508,3.333,45,3.841,45,4.467V22H22.468
		c-0.626,0-1.134,0.508-1.134,1.134v7.065c0,0.626,0.508,1.134,1.134,1.134H45v63.533C45,95.492,45.508,96,46.135,96H54.2
		c0.626,0,1.134-0.508,1.134-1.134V31.333h23.533c0.625,0,1.133-0.508,1.133-1.134v-7.065C80,22.508,79.492,22,78.867,22z"/>
</g>
</svg>
