<?xml version="1.0" encoding="utf-8"?>
<!-- Generator: Adobe Illustrator 14.0.0, SVG Export Plug-In . SVG Version: 6.00 Build 43363)  -->
<!DOCTYPE svg PUBLIC "-//W3C//DTD SVG 1.1//EN" "http://www.w3.org/Graphics/SVG/1.1/DTD/svg11.dtd">
<svg version="1.1" id="Layer_1" xmlns="http://www.w3.org/2000/svg" xmlns:xlink="http://www.w3.org/1999/xlink" x="0px" y="0px"
	 width="100px" height="100px" viewBox="0 0 100 100" enable-background="new 0 0 100 100" xml:space="preserve">
<path d="M27.801,62.691c-0.009,5.004,4.055,9.084,9.058,9.094c4.558,0.008,8.347-3.361,8.993-7.745l0.789,0.06
	c0.242,0.524,0.697,0.948,1.291,1.131c0.197,0.062,0.398,0.092,0.596,0.094c0.91,0.011,1.756-0.573,2.037-1.487l1.043-3.397
	l7.107-7.332l0.445,1.274c-3.21,1.396-5.467,4.591-5.473,8.31c-0.008,5.002,4.055,9.08,9.058,9.092
	c5.004,0.009,9.082-4.053,9.091-9.059c0.01-5.002-4.055-9.089-9.057-9.098c-0.834-0.002-1.641,0.104-2.405,0.314l-0.772-2.235
	l-0.399-1.875c-0.001-0.001,0-0.064-0.002-0.066l-0.252-1.291l3.223,0.007c0.354,0,0.642-0.177,0.642-0.531
	c0.002-0.355-0.285-0.533-0.641-0.533l-2.429-0.006c0.724-0.793,0.739-2.02,0.009-2.833l-7.367-8.156
	c-0.104-0.113-0.214-0.212-0.335-0.299c-0.097-0.089-0.198-0.173-0.31-0.25c-1.427-1.004-3.396-0.663-4.401,0.764L41.7,44.631
	c-0.764,1.083-0.749,2.481-0.073,3.53c0.094,0.162,0.209,0.316,0.349,0.454l1.014,0.992l0.079,0.276l-2.456,4.547
	c-1.134-0.516-2.395-0.796-3.721-0.8C31.889,53.622,27.812,57.689,27.801,62.691z M59.654,55.801l2.5,7.174
	c0.093,0.265,0.341,0.431,0.607,0.431c0.068,0,0.141-0.011,0.211-0.036c0.334-0.116,0.512-0.482,0.396-0.817l-2.5-7.176
	c0.61-0.159,1.249-0.242,1.907-0.242c4.178,0.011,7.567,3.413,7.561,7.589c-0.009,4.176-3.412,7.567-7.588,7.562
	c-4.178-0.009-7.568-3.413-7.562-7.589C55.191,59.629,57.029,56.988,59.654,55.801z M57.773,49.006l-9.401-0.018l-1.189-1.167
	l4.305-6.11l5.138,5.688c0.249,0.278,0.56,0.471,0.89,0.582c0.002,0.018,0.004,0.032,0.008,0.049L57.773,49.006z M50.008,50.59
	l8.044,0.016l0.228,1.105l-5.82,5.967l0.729-2.375c0.231-0.753,0.023-1.57-0.539-2.121L50.008,50.59z M44.876,51.456l3.909,3.834
	l-1.432,4.659L44.876,51.456z M41.695,55.062l1.866-3.396l3.075,10.613L46.539,62.6c-0.023,0.067-0.04,0.137-0.053,0.205
	l-0.615-0.045c0-0.009,0-0.02,0-0.029C45.877,59.514,44.227,56.68,41.695,55.062z M44.447,62.646l-6.535-0.496l3.117-5.767
	C43.069,57.729,44.424,60.031,44.447,62.646z M29.301,62.7c0.008-4.179,3.412-7.567,7.589-7.56c1.069,0,2.088,0.229,3.011,0.631
	l-3.591,6.638c-0.104,0.19-0.104,0.421,0.001,0.612c0.104,0.188,0.3,0.317,0.517,0.332l7.525,0.573
	c-0.583,3.607-3.724,6.368-7.492,6.36C32.686,70.281,29.294,66.876,29.301,62.7z"/>
<circle cx="53.893" cy="31.584" r="3.369"/>
</svg>
