<svg xmlns="http://www.w3.org/2000/svg" xmlns:xlink="http://www.w3.org/1999/xlink" version="1.1" id="Layer_1" x="0px" y="0px" width="58.803px" height="100px" viewBox="0 0 58.803 100" enable-background="new 0 0 58.803 100" xml:space="preserve">
<path d="M57.31,24.382H42.344c-0.855,0-1.521,0.684-1.521,1.517v1.281c0,0.85,0.666,1.517,1.521,1.517h0.529  c-0.029,0,0.108,0.034,0.108,0.103c0.155,0.442,0.488,0.747,0.868,0.919c0,0.781,0,1.861,0,3.102l-13.225,0.012l-15.407-8.997  c-2.591-1.378-5.188-1.671-7.784-0.885c-2.941,0.896-5.05,2.528-6.308,4.906c-0.793,1.459-1.143,2.953-1.045,4.44  C0.029,33.723,0,60.189,0,60.448c0,4.883,3.86,8.783,8.703,8.99l0.126,0.028c0.086,0,0.155,0.052,0.235,0.052  c0.098,0,0.167-0.052,0.253-0.052h20.118v24.973c0,1.517,0.529,2.832,1.66,3.94c1.115,1.104,2.511,1.62,4.2,1.62  c1.505,0,2.9-0.517,4.032-1.62c1.184-1.108,1.815-2.424,1.815-3.94c0,0,0.028-31.286,0-31.516V62.82h-0.018  c-0.166-1.194-0.586-2.314-1.493-3.234c-1.086-1.188-2.413-1.826-3.93-1.826H20.342l0.109-20.043c0,0,9.083,4.768,9.306,4.751  c0.178-0.018,9.054-0.035,14.092-0.144c0,6.911,0,14.362,0,17.36c0,6.291,2.16,13.156,2.16,13.185  c0.85,3.131,0.896,4.119,0.896,4.233c0,0.121,0,0.149,0.029,0.179c-0.029,0.012-0.075,15.643-0.075,18.905  c0,2.896,1.092,3.752,1.913,3.752h2.166c0.821,0,1.81-0.868,1.81-3.752c0-3.286,0-19.055,0-19.055l-0.42-0.029l0.408,0.023  c0-0.109,0.012-1.08,0.891-4.274c0-0.011,2.177-6.876,2.177-13.167c0-5.273,0-24.392,0-29.964c0.333-0.172,0.655-0.442,0.822-0.856  c-0.012,0,0.017-0.052,0.074-0.098c0.012-0.035,0.08-0.086,0.08-0.069h0.529c0.855,0,1.493-0.689,1.493-1.517v-1.281  C58.803,25.078,58.165,24.382,57.31,24.382z M53.109,59.683c0,6.102-2.119,12.897-2.119,12.914l0.437,0.127l-0.437-0.115  c-0.149,0.701-0.626,1.678-0.615,1.706c-0.178,0.121-0.373,0.195-0.598,0.213c-0.138-0.018-0.35-0.092-0.499-0.213  c-0.087,0.006-0.466-1.005-0.632-1.706c0-0.028-2.132-6.824-2.132-12.926c0-1.557,0-4.337,0-7.594  c0.138,0.022,0.293,0.046,0.431,0.046h5.751c0.149,0,0.293-0.023,0.413-0.035C53.109,55.346,53.109,58.126,53.109,59.683z   M53.109,48.211c-0.12-0.041-0.264-0.063-0.413-0.063h-5.751c-0.138,0-0.293,0.029-0.431,0.063c0-1.971,0-4.004,0-5.992  c0.293-0.023,0.626-0.046,0.695-0.063c1.27-0.189,2.274-0.971,2.987-2.315c0.614-1.143,0.712-2.39,0.275-3.774  c-0.608-1.338-1.407-2.28-2.424-2.815c-0.391-0.212-0.908-0.356-1.534-0.425c0-1.097,0-2.12,0-2.855h6.595  C53.109,33.384,53.109,41.226,53.109,48.211z"/>
<path d="M2.16,12.209C1.419,9.768,1.689,7.39,2.93,5.028c1.184-2.24,3.01-3.78,5.48-4.561s4.826-0.586,7.061,0.609  c2.373,1.252,3.895,3.125,4.607,5.601c0.724,2.487,0.471,4.854-0.729,7.112c-1.252,2.344-3.085,3.901-5.526,4.636  c-2.424,0.747-4.826,0.494-7.169-0.77C4.395,16.455,2.901,14.645,2.16,12.209z"/>
</svg>