<?xml version="1.0" encoding="utf-8"?>
<!-- Generator: Adobe Illustrator 14.0.0, SVG Export Plug-In . SVG Version: 6.00 Build 43363)  -->
<!DOCTYPE svg PUBLIC "-//W3C//DTD SVG 1.1//EN" "http://www.w3.org/Graphics/SVG/1.1/DTD/svg11.dtd">
<svg version="1.1" id="Layer_1" xmlns="http://www.w3.org/2000/svg" xmlns:xlink="http://www.w3.org/1999/xlink" x="0px" y="0px"
	 width="100px" height="100px" viewBox="0 0 100 100" enable-background="new 0 0 100 100" xml:space="preserve">
<g>
	<path d="M59.795,18.646v1.359c0,7.133,5.786,12.917,12.919,12.917c7.136,0,12.917-5.784,12.917-12.917v-7.478
		c0,0-1.705-11.277-12.918-11.277S59.795,12.527,59.795,12.527l0,0"/>
	<path d="M21.868,53.516"/>
	<path d="M14.371,52.083"/>
	<path d="M14.371,49.52"/>
	<path d="M21.868,53.516l17.609,8.7l13.892-7.551V100h39.454V48.303c0-6.072-4.923-10.994-10.993-10.994H64.361
		c-2.868,0-5.477,1.111-7.435,2.913l-17.691,9.615l-17.412-8.604c-0.209-2.203-1.778-3.924-3.705-3.924
		c-2.009,0-3.634,1.869-3.73,4.207c-0.478,0.442-0.892,0.965-1.198,1.583c-1.099,2.22-0.535,4.808,1.18,6.421"/>
</g>
<path d="M14.371,52.083v5.942H8.436v5.996h5.937v15.071c0,2.439,1.678,4.416,3.748,4.416c2.07,0,3.747-1.977,3.747-4.416V64.021
	v-5.996V55.75"/>
</svg>
