<?xml version="1.0" encoding="utf-8"?>
<!-- Generator: Adobe Illustrator 14.0.0, SVG Export Plug-In . SVG Version: 6.00 Build 43363)  -->
<!DOCTYPE svg PUBLIC "-//W3C//DTD SVG 1.0//EN" "http://www.w3.org/TR/2001/REC-SVG-20010904/DTD/svg10.dtd">
<svg version="1.0" id="Layer_1" xmlns="http://www.w3.org/2000/svg" xmlns:xlink="http://www.w3.org/1999/xlink" x="0px" y="0px"
	 width="70.34px" height="84.75px" viewBox="0 0 70.34 84.75" enable-background="new 0 0 70.34 84.75" xml:space="preserve">
<path d="M35.498,52.75c7.92,0,15.202,1.418,21.255,3.868c0.169-1.643,0.22-3.227,0.128-4.743
	c-1.077-17.861-3.129-23.542-8.871-27.594L16.526,55.765C22.094,53.844,28.55,52.75,35.498,52.75z"/>
<path d="M15.026,61.301c1.52,6.736,4.806,14.372,9.506,22.866c0.115,0.208,0.229,0.396,0.341,0.583h7.576
	c-7.257-12.673-8.362-18.284-6.979-20.581c0,0,7.683-0.543,10.249-0.543c2.565,0,10.248,0.543,10.248,0.543
	c1.383,2.297,0.279,7.908-6.979,20.581h7.137c0.111-0.186,0.225-0.376,0.339-0.583c4.7-8.494,7.985-16.13,9.506-22.865
	c-5.737-2.523-12.853-4.052-20.472-4.052C27.878,57.25,20.764,58.777,15.026,61.301z"/>
<path d="M60.118,12.173l-3.182-3.182L44.014,21.914c1.502,0.78,2.824,1.541,3.996,2.367L60.118,12.173z"/>
<path d="M56.753,56.618c-0.155,1.509-0.419,3.07-0.783,4.684c4.89,2.15,8.781,5.021,11.096,8.312l3.274-3.273
	C67.346,62.35,62.629,58.998,56.753,56.618z"/>
<path d="M14.115,51.875c0.001-0.023,0.003-0.044,0.004-0.066L0,65.928l3.182,3.182l0.156-0.156l0.622,0.621
	c2.317-3.275,6.198-6.131,11.067-8.273C14.266,57.932,13.94,54.784,14.115,51.875z"/>
<path d="M39.932,19.893v-4.13c2.455-1.49,4.101-4.181,4.101-7.263c0-4.694-3.806-8.5-8.5-8.5s-8.5,3.806-8.5,8.5
	c0,3.067,1.63,5.747,4.066,7.242v4.133C18.914,25.78,15.601,27.347,14.12,51.809l29.894-29.895
	C42.776,21.271,41.422,20.614,39.932,19.893z"/>
</svg>
